<svg width="232" height="103" fill="none" xmlns="http://www.w3.org/2000/svg"><g filter="url(#filter0_d)"><path d="M228 5a5 5 0 00-5-5H9a5 5 0 00-5 5v75.983a5 5 0 005 5h114.617A5 5 0 01126.64 87l8.775 6.66a5 5 0 006.123-.06l8.276-6.54a5 5 0 013.1-1.077H223a5 5 0 005-5V5z" fill="#FC9B09"/></g><g filter="url(#filter1_dd)"><circle cx="173" cy="42" r="25.5" stroke="#fff"/></g><path d="M164.035 43.765c-1.843 0-3.348-.607-4.515-1.82-1.167-1.213-1.75-2.87-1.75-4.97 0-1.377.268-2.578.805-3.605.537-1.027 1.272-1.808 2.205-2.345.957-.56 2.042-.84 3.255-.84 1.867 0 3.383.618 4.55 1.855 1.167 1.213 1.75 2.858 1.75 4.935 0 2.1-.583 3.757-1.75 4.97-1.167 1.213-2.683 1.82-4.55 1.82zm14.49-13.265h5.04L166.835 55h-5.04l16.73-24.5zm-14.49 9.94c.63 0 1.132-.28 1.505-.84.373-.56.56-1.435.56-2.625s-.187-2.065-.56-2.625c-.373-.56-.875-.84-1.505-.84-.607 0-1.108.292-1.505.875-.373.56-.56 1.423-.56 2.59 0 1.167.187 2.042.56 2.625.397.56.898.84 1.505.84zm17.29 14.875c-1.867 0-3.383-.607-4.55-1.82-1.143-1.213-1.715-2.87-1.715-4.97 0-2.077.583-3.722 1.75-4.935 1.167-1.237 2.672-1.855 4.515-1.855 1.867 0 3.383.618 4.55 1.855 1.167 1.213 1.75 2.858 1.75 4.935 0 2.1-.583 3.757-1.75 4.97-1.167 1.213-2.683 1.82-4.55 1.82zm0-3.325c.63 0 1.132-.28 1.505-.84.373-.56.56-1.435.56-2.625s-.187-2.065-.56-2.625c-.373-.56-.875-.84-1.505-.84-.63 0-1.132.28-1.505.84-.373.56-.56 1.435-.56 2.625s.187 2.065.56 2.625c.373.56.875.84 1.505.84zM38.69 43.5V68h-6.93V48.855h-4.55V43.5h11.48zm12.855 8.925c3.43 0 5.961.7 7.595 2.1 1.656 1.4 2.485 3.267 2.485 5.6a7.837 7.837 0 01-1.19 4.2c-.77 1.26-1.96 2.275-3.57 3.045-1.587.747-3.559 1.12-5.915 1.12-1.727 0-3.442-.21-5.145-.63-1.68-.42-3.127-1.015-4.34-1.785l2.485-5.215c.98.653 2.053 1.155 3.22 1.505 1.19.35 2.38.525 3.57.525s2.135-.222 2.835-.665c.723-.467 1.085-1.108 1.085-1.925s-.35-1.435-1.05-1.855c-.7-.42-1.937-.63-3.71-.63h-6.65L44.475 43.5h15.61v5.355h-9.87l-.315 3.57h1.645zM74.449 68.49c-2.1 0-3.966-.502-5.6-1.505-1.633-1.003-2.916-2.462-3.85-4.375-.91-1.937-1.365-4.223-1.365-6.86 0-2.637.455-4.912 1.365-6.825.934-1.937 2.217-3.407 3.85-4.41 1.634-1.003 3.5-1.505 5.6-1.505 2.077 0 3.932.502 5.565 1.505 1.634 1.003 2.905 2.473 3.815 4.41.934 1.913 1.4 4.188 1.4 6.825 0 2.637-.466 4.923-1.4 6.86-.91 1.913-2.181 3.372-3.815 4.375-1.633 1.003-3.488 1.505-5.565 1.505zm0-5.67c1.167 0 2.089-.56 2.765-1.68.7-1.143 1.05-2.94 1.05-5.39 0-2.45-.35-4.235-1.05-5.355-.676-1.143-1.598-1.715-2.765-1.715-1.19 0-2.135.572-2.835 1.715-.676 1.12-1.015 2.905-1.015 5.355 0 2.45.339 4.247 1.015 5.39.7 1.12 1.645 1.68 2.835 1.68zm23.96 5.67c-2.1 0-3.966-.502-5.6-1.505-1.633-1.003-2.916-2.462-3.85-4.375-.91-1.937-1.365-4.223-1.365-6.86 0-2.637.455-4.912 1.365-6.825.934-1.937 2.217-3.407 3.85-4.41 1.634-1.003 3.5-1.505 5.6-1.505 2.077 0 3.932.502 5.565 1.505 1.634 1.003 2.905 2.473 3.815 4.41.934 1.913 1.4 4.188 1.4 6.825 0 2.637-.466 4.923-1.4 6.86-.91 1.913-2.181 3.372-3.815 4.375-1.633 1.003-3.488 1.505-5.565 1.505zm0-5.67c1.167 0 2.089-.56 2.765-1.68.7-1.143 1.05-2.94 1.05-5.39 0-2.45-.35-4.235-1.05-5.355-.676-1.143-1.598-1.715-2.765-1.715-1.19 0-2.135.572-2.835 1.715-.676 1.12-1.015 2.905-1.015 5.355 0 2.45.339 4.247 1.015 5.39.7 1.12 1.645 1.68 2.835 1.68zm23.225-2.73v1.855h7.455v3.395h-7.455V68h-6.965v-2.66h-3.255v-3.395h3.255V43.5h11.2c3.43 0 6.102.7 8.015 2.1 1.914 1.4 2.87 3.465 2.87 6.195 0 2.73-.956 4.795-2.87 6.195-1.913 1.4-4.585 2.1-8.015 2.1h-4.235zm8.12-8.225c0-.933-.35-1.645-1.05-2.135-.676-.513-1.645-.77-2.905-.77h-4.165v5.845h4.165c1.26 0 2.229-.257 2.905-.77.7-.513 1.05-1.237 1.05-2.17zM34.48 30.12c-1.387 0-2.64-.307-3.76-.92a6.85 6.85 0 01-2.62-2.54c-.627-1.093-.94-2.313-.94-3.66s.313-2.56.94-3.64a6.769 6.769 0 012.64-2.56c1.12-.613 2.373-.92 3.76-.92 1.04 0 2 .173 2.88.52a5.97 5.97 0 012.24 1.52l-.94.94c-1.093-1.107-2.473-1.66-4.14-1.66-1.107 0-2.113.253-3.02.76a5.627 5.627 0 00-2.14 2.08c-.507.88-.76 1.867-.76 2.96s.253 2.08.76 2.96a5.627 5.627 0 002.14 2.08c.907.507 1.913.76 3.02.76 1.68 0 3.06-.56 4.14-1.68l.94.94a6.14 6.14 0 01-2.26 1.54c-.88.347-1.84.52-2.88.52zm14.963-9.38h-3.98V30h-1.42v-9.26h-3.98v-1.26h9.38v1.26zm5.905 9.36c-1.013 0-1.926-.227-2.74-.68a5.104 5.104 0 01-1.92-1.92c-.466-.813-.7-1.733-.7-2.76 0-1.027.234-1.947.7-2.76a4.96 4.96 0 011.92-1.9c.814-.453 1.727-.68 2.74-.68 1.014 0 1.927.227 2.74.68a4.823 4.823 0 011.9 1.9c.467.813.7 1.733.7 2.76 0 1.027-.233 1.947-.7 2.76a4.962 4.962 0 01-1.9 1.92c-.813.453-1.726.68-2.74.68zm0-1.26c.747 0 1.414-.167 2-.5a3.604 3.604 0 001.4-1.46c.334-.627.5-1.34.5-2.14s-.166-1.513-.5-2.14a3.472 3.472 0 00-1.4-1.44c-.586-.347-1.253-.52-2-.52-.746 0-1.42.173-2.02.52a3.64 3.64 0 00-1.4 1.44c-.333.627-.5 1.34-.5 2.14s.167 1.513.5 2.14a3.784 3.784 0 001.4 1.46c.6.333 1.274.5 2.02.5zm8.375-9.36h1.42v8.36l7.02-8.36h1.26V30h-1.42v-8.36l-7 8.36h-1.28V19.48zm25.53 0V30h-1.3v-8.32l-4.26 7.04h-.64l-4.26-7.06V30h-1.3V19.48h1.44l4.46 7.58 4.54-7.58h1.32zm8.38 10.62c-1.013 0-1.926-.227-2.74-.68a5.106 5.106 0 01-1.92-1.92c-.466-.813-.7-1.733-.7-2.76 0-1.027.234-1.947.7-2.76a4.961 4.961 0 011.92-1.9c.814-.453 1.727-.68 2.74-.68 1.014 0 1.927.227 2.74.68a4.816 4.816 0 011.9 1.9c.467.813.7 1.733.7 2.76 0 1.027-.233 1.947-.7 2.76a4.954 4.954 0 01-1.9 1.92c-.813.453-1.726.68-2.74.68zm0-1.26c.747 0 1.414-.167 2-.5a3.603 3.603 0 001.4-1.46c.334-.627.5-1.34.5-2.14s-.166-1.513-.5-2.14a3.471 3.471 0 00-1.4-1.44c-.586-.347-1.253-.52-2-.52-.746 0-1.42.173-2.02.52a3.64 3.64 0 00-1.4 1.44c-.333.627-.5 1.34-.5 2.14s.167 1.513.5 2.14a3.785 3.785 0 001.4 1.46c.6.333 1.274.5 2.02.5zm12.775 1.26c-1.04 0-1.973-.227-2.8-.68a4.965 4.965 0 01-1.92-1.9c-.466-.827-.7-1.753-.7-2.78s.234-1.947.7-2.76a4.965 4.965 0 011.92-1.9c.827-.453 1.76-.68 2.8-.68.907 0 1.714.18 2.42.54.72.347 1.287.86 1.7 1.54l-1.06.72a3.233 3.233 0 00-1.32-1.16 3.834 3.834 0 00-1.74-.4c-.76 0-1.446.173-2.06.52-.6.333-1.073.813-1.42 1.44-.333.627-.5 1.34-.5 2.14 0 .813.167 1.533.5 2.16a3.78 3.78 0 001.42 1.44c.614.333 1.3.5 2.06.5.627 0 1.207-.127 1.74-.38a3.23 3.23 0 001.32-1.16l1.06.72c-.413.68-.98 1.2-1.7 1.56-.72.347-1.526.52-2.42.52zm14.075-9.36h-3.98V30h-1.42v-9.26h-3.98v-1.26h9.38v1.26zm6.573 2.46c1.32.013 2.32.307 3 .88.693.573 1.04 1.4 1.04 2.48 0 1.12-.374 1.98-1.12 2.58-.734.6-1.8.893-3.2.88l-4.24-.02V19.48h1.42v3.68l3.1.04zm-.36 5.74c.973.013 1.706-.18 2.2-.58.506-.413.76-1.013.76-1.8 0-.773-.247-1.347-.74-1.72-.494-.373-1.234-.567-2.22-.58l-2.74-.04v4.68l2.74.04zm7.209-7.36a1.04 1.04 0 01-.76-.32c-.2-.213-.3-.473-.3-.78 0-.307.1-.56.3-.76.213-.213.467-.32.76-.32s.547.107.76.32c.213.2.32.453.32.76s-.107.567-.32.78a1.04 1.04 0 01-.76.32zm0 8.52a1.04 1.04 0 01-.76-.32c-.2-.213-.3-.473-.3-.78 0-.307.1-.56.3-.76.213-.213.467-.32.76-.32s.547.107.76.32c.213.2.32.453.32.76s-.107.567-.32.78a1.04 1.04 0 01-.76.32z" fill="#fff"/><defs><filter id="filter0_d" x="0" y="0" width="232" height="102.676" filterUnits="userSpaceOnUse" color-interpolation-filters="sRGB"><feFlood flood-opacity="0" result="BackgroundImageFix"/><feColorMatrix in="SourceAlpha" values="0 0 0 0 0 0 0 0 0 0 0 0 0 0 0 0 0 0 127 0" result="hardAlpha"/><feOffset dy="4"/><feGaussianBlur stdDeviation="2"/><feColorMatrix values="0 0 0 0 0 0 0 0 0 0 0 0 0 0 0 0 0 0 0.1 0"/><feBlend in2="BackgroundImageFix" result="effect1_dropShadow"/><feBlend in="SourceGraphic" in2="effect1_dropShadow" result="shape"/></filter><filter id="filter1_dd" x="132" y="5" width="82" height="82" filterUnits="userSpaceOnUse" color-interpolation-filters="sRGB"><feFlood flood-opacity="0" result="BackgroundImageFix"/><feColorMatrix in="SourceAlpha" values="0 0 0 0 0 0 0 0 0 0 0 0 0 0 0 0 0 0 127 0" result="hardAlpha"/><feOffset dy="4"/><feGaussianBlur stdDeviation="2"/><feColorMatrix values="0 0 0 0 1 0 0 0 0 1 0 0 0 0 1 0 0 0 0.25 0"/><feBlend in2="BackgroundImageFix" result="effect1_dropShadow"/><feColorMatrix in="SourceAlpha" values="0 0 0 0 0 0 0 0 0 0 0 0 0 0 0 0 0 0 127 0" result="hardAlpha"/><feOffset dy="4"/><feGaussianBlur stdDeviation="7.5"/><feColorMatrix values="0 0 0 0 1 0 0 0 0 1 0 0 0 0 1 0 0 0 0.25 0"/><feBlend in2="effect1_dropShadow" result="effect2_dropShadow"/><feBlend in="SourceGraphic" in2="effect2_dropShadow" result="shape"/></filter></defs></svg>